<?xml version="1.0" encoding="utf-8"?>
<!-- Generator: Adobe Illustrator 16.0.0, SVG Export Plug-In . SVG Version: 6.00 Build 0)  -->
<!DOCTYPE svg PUBLIC "-//W3C//DTD SVG 1.1//EN" "http://www.w3.org/Graphics/SVG/1.1/DTD/svg11.dtd">
<svg version="1.1" id="Layer_1" xmlns="http://www.w3.org/2000/svg" xmlns:xlink="http://www.w3.org/1999/xlink" x="0px" y="0px"
	 width="183px" height="181.5px" viewBox="17.5 0 183 181.5" enable-background="new 17.5 0 183 181.5" xml:space="preserve">
<g>
	<g>
		<polygon fill="#58595B" points="176.24,15.982 109,54.805 108.997,90.361 176.295,129.226 		"/>
	</g>
	<g>
		<polygon fill="#58595B" points="41.753,15.982 108.995,54.805 108.997,90.361 41.701,129.226 		"/>
	</g>
	<g>
		<polygon fill="#E6E7E8" points="108.997,90.361 109,176.499 183.584,133.437 		"/>
	</g>
	<g>
		<polygon fill="#FFFFFF" points="108.997,90.361 108.995,176.499 34.411,133.437 		"/>
	</g>
	<g>
		<path fill="#414042" d="M109,92.354l70.238,40.565L109,173.47l-70.239-40.551L109,92.354 M109,88.708l-76.554,44.211l0,0
			L109,177.118l76.555-44.199l0,0L109,88.708L109,88.708z"/>
	</g>
	<g>
		<path fill="#FFFFFF" d="M94.643,64.427c0.142,0.985,0.24,1.983,0.24,3.009c0,11.537-9.352,20.895-20.892,20.895
			c-11.534,0-20.888-9.357-20.888-20.895c0-1.025,0.102-2.023,0.24-3.009H94.643z"/>
		<path fill="#414042" d="M73.991,89.988c-12.432,0-22.546-10.116-22.546-22.552c0-0.967,0.081-1.996,0.257-3.24
			c0.115-0.817,0.815-1.426,1.642-1.426h41.299c0.824,0,1.523,0.604,1.641,1.422c0.176,1.219,0.258,2.25,0.258,3.244
			C96.541,79.872,86.425,89.988,73.991,89.988z M54.822,66.085c-0.041,0.481-0.061,0.921-0.061,1.352
			c0,10.607,8.627,19.236,19.23,19.236c10.605,0,19.234-8.629,19.234-19.236c0-0.432-0.02-0.875-0.06-1.352H54.822z"/>
	</g>
	<g>
		<path fill="#414042" d="M85.48,64.427c0.249,0.965,0.396,1.964,0.396,3.009c0,6.562-5.315,11.885-11.885,11.885
			c-6.553,0-11.88-5.323-11.88-11.885c0-1.045,0.148-2.044,0.398-3.009H85.48z"/>
	</g>
	<g>
		<path fill="#FFFFFF" d="M71.934,69.581c0-1.417-1.146-2.566-2.569-2.566c-1.415,0-2.563,1.149-2.563,2.566
			c0,1.414,1.147,2.569,2.563,2.569C70.787,72.15,71.934,70.995,71.934,69.581z"/>
	</g>
	<g>
		<path fill="#FFFFFF" d="M164.73,64.427c0.143,0.985,0.24,1.983,0.24,3.009c0,11.537-9.352,20.895-20.893,20.895
			c-11.533,0-20.889-9.357-20.889-20.895c0-1.025,0.104-2.023,0.24-3.009H164.73z"/>
		<path fill="#414042" d="M144.078,89.988c-12.432,0-22.545-10.116-22.545-22.552c0-0.967,0.08-1.996,0.256-3.24
			c0.115-0.817,0.814-1.426,1.643-1.426h41.299c0.824,0,1.523,0.604,1.641,1.422c0.176,1.219,0.258,2.25,0.258,3.244
			C166.629,79.872,156.514,89.988,144.078,89.988z M124.908,66.085c-0.041,0.481-0.061,0.921-0.061,1.352
			c0,10.607,8.627,19.236,19.23,19.236c10.605,0,19.232-8.629,19.232-19.236c0-0.432-0.018-0.875-0.059-1.352H124.908z"/>
	</g>
	<g>
		<path fill="#414042" d="M155.566,64.427c0.25,0.965,0.398,1.964,0.398,3.009c0,6.562-5.316,11.885-11.887,11.885
			c-6.553,0-11.879-5.323-11.879-11.885c0-1.045,0.148-2.044,0.398-3.009H155.566z"/>
	</g>
	<g>
		<path fill="#FFFFFF" d="M142.021,69.581c0-1.417-1.145-2.566-2.568-2.566c-1.416,0-2.563,1.149-2.563,2.566
			c0,1.414,1.146,2.569,2.563,2.569C140.875,72.15,142.021,70.995,142.021,69.581z"/>
	</g>
	<g>
		<path fill="#FDE383" d="M190.711,100.818V63.349c-5.625,0-10.186-4.56-10.186-10.184c0-1.864,0.51-3.604,1.383-5.108
			l-45.969-26.542c-1.303,1.458-3.191,2.382-5.301,2.382c-3.922,0-7.104-3.182-7.104-7.105c0-0.779,0.129-1.527,0.361-2.229
			L108.997,5.96v62.627H109c3.197,0,5.789,2.593,5.789,5.79c0,3.197-2.592,5.789-5.789,5.789h-0.003v10.193l81.714,47.192V126.64
			c-5.832-1.405-10.172-6.646-10.172-12.915C180.539,107.461,184.879,102.223,190.711,100.818z M117.953,36.561
			c0-2.255,1.828-4.083,4.082-4.083s4.082,1.828,4.082,4.083c0,2.254-1.828,4.082-4.082,4.082S117.953,38.814,117.953,36.561z
			 M124.365,68.065c0-10.848,8.793-19.641,19.641-19.641c10.846,0,19.639,8.793,19.639,19.641c0,10.847-8.793,19.64-19.639,19.64
			C133.156,87.705,124.365,78.912,124.365,68.065z M163.643,110.585c-3.922,0-7.105-3.183-7.105-7.105
			c0-3.926,3.184-7.107,7.105-7.107c3.926,0,7.105,3.182,7.105,7.107C170.748,107.402,167.568,110.585,163.643,110.585z
			 M180.127,84.555c-2.256,0-4.082-1.828-4.082-4.083c0-2.255,1.826-4.083,4.082-4.083c2.254,0,4.082,1.828,4.082,4.083
			C184.209,82.728,182.381,84.555,180.127,84.555z"/>
		<path fill="#414042" d="M190.711,139.134c-0.273,0-0.547-0.071-0.789-0.213l-81.713-47.192c-0.489-0.281-0.789-0.803-0.789-1.367
			V80.167c0-0.872,0.706-1.579,1.578-1.579c2.326,0,4.214-1.888,4.214-4.21c0-2.322-1.888-4.211-4.21-4.211
			c-0.872,0-1.581-0.707-1.581-1.579V5.961c0-0.564,0.3-1.086,0.789-1.368c0.488-0.282,1.09-0.282,1.579,0l14.898,8.603
			c0.648,0.375,0.945,1.152,0.711,1.862c-0.188,0.568-0.283,1.152-0.283,1.734c0,3.047,2.48,5.527,5.525,5.527
			c1.566,0,3.068-0.677,4.121-1.854c0.498-0.56,1.32-0.692,1.967-0.317l45.971,26.542c0.363,0.211,0.629,0.556,0.736,0.962
			c0.109,0.405,0.051,0.837-0.16,1.2c-0.766,1.313-1.17,2.807-1.17,4.313c0,4.745,3.861,8.604,8.607,8.604
			c0.871,0,1.578,0.707,1.578,1.579v37.469c0,0.729-0.5,1.364-1.209,1.535c-5.277,1.271-8.963,5.947-8.963,11.373
			c0,5.429,3.686,10.108,8.963,11.38c0.709,0.171,1.209,0.806,1.209,1.535v10.912c0,0.563-0.301,1.086-0.789,1.367
			C191.256,139.063,190.984,139.134,190.711,139.134z M110.577,89.449l78.556,45.369v-6.986
			c-6.051-2.003-10.172-7.635-10.172-14.105c0-6.467,4.123-12.097,10.172-14.099V64.823c-5.744-0.773-10.186-5.706-10.186-11.657
			c0-1.537,0.307-3.061,0.893-4.479l-43.666-25.211c-1.549,1.283-3.506,2.001-5.535,2.001c-4.787,0-8.684-3.896-8.684-8.685
			c0-0.487,0.043-0.973,0.125-1.454l-11.503-6.642v58.484c3.31,0.724,5.792,3.677,5.792,7.198c0,3.522-2.484,6.475-5.792,7.198
			V89.449z M163.643,112.163c-4.787,0-8.684-3.896-8.684-8.684c0-4.79,3.896-8.687,8.684-8.687c4.789,0,8.686,3.896,8.686,8.687
			C172.328,108.267,168.432,112.163,163.643,112.163z M163.643,97.951c-3.047,0-5.525,2.479-5.525,5.528
			c0,3.047,2.48,5.526,5.525,5.526c3.049,0,5.527-2.479,5.527-5.526C169.17,100.43,166.691,97.951,163.643,97.951z M144.004,89.284
			c-11.699,0-21.219-9.52-21.219-21.219c0-11.7,9.52-21.219,21.219-21.219s21.219,9.519,21.219,21.219
			C165.223,79.764,155.703,89.284,144.004,89.284z M144.004,50.004c-9.959,0-18.061,8.103-18.061,18.062s8.102,18.061,18.061,18.061
			s18.061-8.102,18.061-18.061S153.963,50.004,144.004,50.004z M180.127,86.134c-3.121,0-5.662-2.539-5.662-5.661
			c0-3.121,2.541-5.662,5.662-5.662c3.119,0,5.66,2.541,5.66,5.662C185.787,83.594,183.246,86.134,180.127,86.134z M180.127,77.968
			c-1.381,0-2.504,1.123-2.504,2.504c0,1.38,1.123,2.504,2.504,2.504s2.504-1.124,2.504-2.504
			C182.631,79.092,181.508,77.968,180.127,77.968z M122.035,42.221c-3.121,0-5.662-2.539-5.662-5.661
			c0-3.122,2.541-5.662,5.662-5.662s5.662,2.54,5.662,5.662C127.697,39.682,125.156,42.221,122.035,42.221z M122.035,34.056
			c-1.381,0-2.504,1.123-2.504,2.504c0,1.38,1.123,2.503,2.504,2.503s2.504-1.123,2.504-2.503
			C124.539,35.179,123.416,34.056,122.035,34.056z"/>
	</g>
	<g>
		<path fill="#414042" d="M144.932,132.378h-21.5c-0.764,0-1.383-0.617-1.383-1.381s0.619-1.382,1.383-1.382h21.5
			c0.764,0,1.383,0.618,1.383,1.382C146.314,131.759,145.695,132.378,144.932,132.378z"/>
	</g>
	<g>
		<path fill="#414042" d="M137.914,137.036h-14.482c-0.764,0-1.383-0.619-1.383-1.382c0-0.765,0.619-1.382,1.383-1.382h14.482
			c0.764,0,1.383,0.617,1.383,1.382C139.297,136.417,138.678,137.036,137.914,137.036z"/>
	</g>
	<g>
		<path fill="#414042" d="M137.914,127.722h-14.482c-0.764,0-1.383-0.619-1.383-1.383s0.619-1.382,1.383-1.382h14.482
			c0.764,0,1.383,0.618,1.383,1.382S138.678,127.722,137.914,127.722z"/>
	</g>
	<g>
		<path fill="#414042" d="M94.571,132.378H73.068c-0.764,0-1.382-0.617-1.382-1.381s0.618-1.382,1.382-1.382h21.503
			c0.763,0,1.381,0.618,1.381,1.382C95.951,131.759,95.333,132.378,94.571,132.378z"/>
	</g>
	<g>
		<path fill="#414042" d="M94.571,137.036H80.085c-0.764,0-1.382-0.619-1.382-1.382c0-0.765,0.618-1.382,1.382-1.382H94.57
			c0.763,0,1.381,0.617,1.381,1.382C95.951,136.417,95.333,137.036,94.571,137.036z"/>
	</g>
	<g>
		<path fill="#414042" d="M94.571,127.722H80.085c-0.764,0-1.382-0.619-1.382-1.383s0.618-1.382,1.382-1.382H94.57
			c0.763,0,1.381,0.618,1.381,1.382S95.333,127.722,94.571,127.722z"/>
	</g>
	<g>
		<path fill="#58595B" d="M122.885,145.876l-12.747-7.361v-14.815l8.866-5.123h-0.012l0.002-0.002l-9.963-5.757l-9.964,5.757
			l0.004,0.002h-0.018l8.868,5.123v14.815l-12.747,7.361c-0.529,0.307-0.711,0.982-0.406,1.514c0.307,0.531,0.985,0.713,1.514,0.406
			l12.747-7.361h0.001l12.745,7.361c0.174,0.101,0.365,0.148,0.553,0.148c0.383,0,0.756-0.199,0.961-0.555
			C123.596,146.858,123.414,146.181,122.885,145.876z"/>
	</g>
	<g>
		<path fill="#FDE383" d="M76.342,24.816c0.47,0.665,0.751,1.472,0.751,2.348c0,2.255-1.828,4.083-4.083,4.083
			c-1.642,0-3.048-0.976-3.695-2.373L27.289,53.138v10.1c5.159,0.645,9.154,5.038,9.154,10.371c0,5.334-3.995,9.727-9.154,10.371
			v32.739c2.254,0,4.082,1.828,4.082,4.084s-1.828,4.084-4.082,4.084v12.664l59.535-34.387c-0.746-0.918-1.194-2.085-1.194-3.358
			c0-2.944,2.387-5.329,5.329-5.329c2.272,0,4.208,1.425,4.974,3.428l13.064-7.544v-84.4L76.342,24.816z M40.315,58.214
			c0-2.255,1.828-4.083,4.082-4.083c2.255,0,4.083,1.828,4.083,4.083c0,2.254-1.828,4.083-4.083,4.083
			C42.143,62.297,40.315,60.468,40.315,58.214z M53.821,110.328c-4.6,0-8.329-3.729-8.329-8.33c0-4.6,3.729-8.329,8.329-8.329
			s8.329,3.729,8.329,8.329C62.15,106.598,58.42,110.328,53.821,110.328z M73.991,87.706c-10.846,0-19.638-8.793-19.638-19.641
			c0-10.849,8.792-19.642,19.638-19.642c10.848,0,19.642,8.793,19.642,19.642C93.633,78.913,84.839,87.706,73.991,87.706z
			 M98.484,42.265c-1.182,0.877-2.64,1.401-4.225,1.401c-3.924,0-7.105-3.18-7.105-7.104c0-0.246,0.012-0.489,0.037-0.729
			c0.365-3.581,3.391-6.375,7.068-6.375c3.925,0,7.105,3.182,7.105,7.104C101.365,38.902,100.229,40.971,98.484,42.265z"/>
		<path fill="#414042" d="M27.289,139.132c-0.273,0-0.545-0.069-0.79-0.211c-0.488-0.281-0.789-0.804-0.789-1.367V124.89
			c0-0.873,0.707-1.58,1.578-1.58c1.381,0,2.504-1.125,2.504-2.506s-1.123-2.505-2.504-2.506c-0.871,0-1.578-0.706-1.578-1.578
			V83.98c0-0.797,0.593-1.468,1.383-1.567c4.431-0.553,7.771-4.338,7.771-8.804c0-4.466-3.341-8.251-7.771-8.805
			c-0.79-0.099-1.383-0.771-1.383-1.566v-10.1c0-0.563,0.301-1.085,0.789-1.367l42.026-24.266c0.384-0.221,0.843-0.271,1.266-0.137
			c0.423,0.133,0.77,0.438,0.956,0.841c0.41,0.886,1.299,1.458,2.263,1.458c1.381,0,2.505-1.123,2.505-2.504
			c0-0.513-0.16-1.01-0.462-1.438c-0.257-0.362-0.348-0.815-0.253-1.25c0.096-0.433,0.369-0.807,0.753-1.028l32.655-18.854
			c0.488-0.282,1.09-0.282,1.579,0s0.79,0.804,0.79,1.368V90.36c0,0.564-0.301,1.086-0.79,1.368l-13.064,7.543
			c-0.4,0.23-0.88,0.275-1.317,0.12c-0.436-0.153-0.782-0.491-0.947-0.923c-0.552-1.443-1.958-2.414-3.499-2.414
			c-2.067,0-3.75,1.683-3.75,3.751c0,0.869,0.291,1.686,0.84,2.362c0.292,0.359,0.412,0.828,0.328,1.281
			c-0.084,0.455-0.362,0.85-0.764,1.081l-59.535,34.39C27.834,139.062,27.562,139.132,27.289,139.132z M28.868,126.243v8.574
			L84.644,102.6c-0.388-0.875-0.593-1.828-0.593-2.794c0-3.81,3.098-6.908,6.907-6.908c2.222,0,4.29,1.092,5.572,2.838l10.888-6.286
			V8.696L78.404,25.449c0.178,0.551,0.269,1.128,0.269,1.715c0,3.122-2.54,5.662-5.662,5.662c-1.605,0-3.117-0.695-4.173-1.853
			l-39.97,23.078v7.876c5.306,1.306,9.154,6.103,9.154,11.683c0,5.581-3.849,10.377-9.154,11.683v30.072
			c2.355,0.687,4.082,2.865,4.082,5.439C32.95,123.378,31.224,125.558,28.868,126.243z M53.821,111.907
			c-5.464,0-9.908-4.445-9.908-9.909c0-5.463,4.444-9.908,9.908-9.908s9.908,4.445,9.908,9.908
			C63.729,107.462,59.284,111.907,53.821,111.907z M53.821,95.248c-3.723,0-6.75,3.027-6.75,6.75c0,3.723,3.027,6.751,6.75,6.751
			c3.722,0,6.751-3.028,6.751-6.751C60.572,98.275,57.542,95.248,53.821,95.248z M73.991,89.285c-11.699,0-21.217-9.52-21.217-21.22
			c0-11.701,9.518-21.221,21.217-21.221c11.701,0,21.22,9.52,21.22,21.221C95.211,79.765,85.693,89.285,73.991,89.285z
			 M73.991,50.003c-9.957,0-18.059,8.103-18.059,18.063s8.102,18.062,18.059,18.062c9.96,0,18.063-8.102,18.063-18.062
			S83.951,50.003,73.991,50.003z M44.397,63.876c-3.121,0-5.661-2.541-5.661-5.662c0-3.122,2.54-5.662,5.661-5.662
			c3.122,0,5.662,2.54,5.662,5.662C50.059,61.335,47.519,63.876,44.397,63.876z M44.397,55.71c-1.38,0-2.503,1.123-2.503,2.504
			c0,1.381,1.123,2.504,2.503,2.504c1.381,0,2.504-1.123,2.504-2.504C46.901,56.833,45.778,55.71,44.397,55.71z M94.259,45.246
			c-4.789,0-8.685-3.896-8.685-8.685c0-0.3,0.016-0.597,0.045-0.891c0.454-4.442,4.168-7.793,8.64-7.793
			c4.788,0,8.684,3.896,8.684,8.684c0,2.731-1.314,5.338-3.519,6.973C97.914,44.654,96.127,45.246,94.259,45.246z M94.259,31.036
			c-2.846,0-5.209,2.131-5.498,4.956c-0.02,0.188-0.028,0.377-0.028,0.569c0,3.048,2.479,5.527,5.526,5.527
			c1.187,0,2.322-0.377,3.284-1.092c1.425-1.057,2.242-2.674,2.242-4.436C99.785,33.514,97.306,31.036,94.259,31.036z"/>
	</g>
</g>
</svg>
